<?xml version="1.0" encoding="UTF-8"?>
<svg xmlns="http://www.w3.org/2000/svg" width="1200" height="675" viewBox="0 0 1200 675" role="img" aria-labelledby="title desc">
  <title id="title">How local service businesses can decide whether SEO is worth it</title>
  <desc id="desc">Modern Russell Digital blog image with the article title centered.</desc>
  <defs>
    <linearGradient id="bg" x1="0" y1="0" x2="1" y2="1">
      <stop offset="0" stop-color="#f7f8fb"/>
      <stop offset="0.48" stop-color="#eef2f7"/>
      <stop offset="1" stop-color="#f9faf5"/>
    </linearGradient>
    <linearGradient id="accent" x1="0" y1="0" x2="1" y2="0">
      <stop offset="0" stop-color="#ff4f2e"/>
      <stop offset="0.5" stop-color="#ffcc33"/>
      <stop offset="1" stop-color="#14b8a6"/>
    </linearGradient>
    <filter id="softShadow" x="-20%" y="-20%" width="140%" height="140%">
      <feDropShadow dx="0" dy="18" stdDeviation="28" flood-color="#151923" flood-opacity="0.12"/>
    </filter>
  </defs>
  <rect width="1200" height="675" fill="url(#bg)"/>
  <path d="M0 485 C160 445 244 538 405 493 C576 446 637 328 825 358 C984 383 1042 494 1200 447 L1200 675 L0 675 Z" fill="#ffffff" opacity="0.72"/>
  <circle cx="160" cy="150" r="74" fill="#ffffff" opacity="0.78"/>
  <circle cx="1040" cy="150" r="92" fill="#ffffff" opacity="0.7"/>
  <rect x="186" y="138" width="828" height="398" rx="28" fill="#ffffff" filter="url(#softShadow)"/>
  <rect x="226" y="178" width="748" height="8" rx="4" fill="url(#accent)"/>
  <g fill="#151923" font-family="Arial, Helvetica, sans-serif" font-size="54" font-weight="800" letter-spacing="0">
      <text x="600" y="262" text-anchor="middle">How local service businesses</text>
      <text x="600" y="330" text-anchor="middle">can decide whether SEO is</text>
      <text x="600" y="398" text-anchor="middle">worth it</text>
  </g>
  <text x="600" y="470" text-anchor="middle" fill="#5c6472" font-family="Arial, Helvetica, sans-serif" font-size="24" font-weight="700">Russell Digital</text>
</svg>
